<svg xmlns="http://www.w3.org/2000/svg" width="27" height="27" fill="none"><path fill="#FDFBF8" d="m21.934 15.694 1.04-5.67a1.594 1.594 0 0 0-.35-1.318 1.62 1.62 0 0 0-1.245-.577H8.054l-.347-1.895a1.603 1.603 0 0 0-.557-.947 1.629 1.629 0 0 0-1.039-.373H4.973a.977.977 0 0 0-.688.283.96.96 0 0 0 0 1.363c.182.181.43.283.688.283h.868L7.957 18.38c.01.053.022.104.037.155a2.549 2.549 0 0 0 .01 3.624 2.613 2.613 0 0 0 3.656.01 2.548 2.548 0 0 0 .688-2.47h4.703a2.55 2.55 0 0 0 .09 1.569c.195.5.543.928.995 1.223a2.61 2.61 0 0 0 3.014-.115 2.57 2.57 0 0 0 .897-1.295 2.55 2.55 0 0 0-.03-1.57 2.573 2.573 0 0 0-.946-1.26 2.608 2.608 0 0 0-1.509-.48h-9.74l-.236-1.286h11.39c.229 0 .45-.079.624-.223a.963.963 0 0 0 .334-.568Zm-11.45 4.649a.64.64 0 0 1-.4.593.653.653 0 0 1-.707-.139.641.641 0 0 1 .459-1.097c.172 0 .336.068.458.188s.19.284.19.455Zm9.078.642a.653.653 0 0 1-.599-.396.638.638 0 0 1 .14-.701.65.65 0 0 1 1.108.455.64.64 0 0 1-.19.454.652.652 0 0 1-.459.188Zm-10.33-6.428-.824-4.5H20.99l-.825 4.5H9.233Z"/></svg>