<svg xmlns="http://www.w3.org/2000/svg" width="452" height="124" fill="none"><path fill="#07484A" d="M142.85 97.45h-10.6v-71h10.6v71ZM157.85 26.45h9.9l27.1 53.9-1.3 1.3v-55.2h10.1v70.9h-10l-27-52.6 1.3-1.3v53.9h-10.1v-70.9ZM246.75 26.45h7.7l12 53.5 9.2-53.5h10.7l-14.1 71h-10.7l-10.7-48.8-11.2 48.8h-10.7l-14.1-71h10.7l9.2 53.5 12-53.5ZM304.15 95.45c-3.3-1.8-5.9-4.5-7.7-7.9-1.8-3.4-2.7-7.5-2.7-12.1v-27c0-4.7.9-8.7 2.7-12.1 1.8-3.4 4.4-6 7.7-7.9 3.3-1.8 7.3-2.8 11.8-2.8 4.5 0 8.5.9 11.8 2.8 3.3 1.8 5.9 4.5 7.7 7.9 1.8 3.4 2.7 7.5 2.7 12.1v27c0 4.6-.9 8.7-2.7 12.1-1.8 3.4-4.4 6.1-7.7 7.9-3.3 1.8-7.3 2.8-11.8 2.8-4.5-.1-8.5-1-11.8-2.8Zm17.9-9.2c1.7-1 3.1-2.4 4-4.2 1-1.8 1.4-4 1.4-6.5v-27.3c0-2.4-.5-4.6-1.4-6.4-1-1.8-2.3-3.3-4-4.2-1.7-1-3.8-1.5-6.1-1.5s-4.4.5-6.1 1.5c-1.7 1-3.1 2.4-4 4.2-.9 1.8-1.4 4-1.4 6.4v27.3c0 2.5.5 4.6 1.4 6.5.9 1.8 2.3 3.3 4 4.2 1.7 1 3.8 1.5 6.1 1.5s4.4-.5 6.1-1.5ZM360.25 95.45c-3.3-1.8-5.9-4.5-7.7-7.9-1.8-3.4-2.7-7.5-2.7-12.1v-27c0-4.7.9-8.7 2.7-12.1 1.8-3.4 4.4-6 7.7-7.9 3.3-1.8 7.3-2.8 11.8-2.8 4.5 0 8.5.9 11.8 2.8 3.3 1.8 5.9 4.5 7.7 7.9 1.8 3.4 2.7 7.5 2.7 12.1v27c0 4.6-.9 8.7-2.7 12.1-1.8 3.4-4.4 6.1-7.7 7.9-3.3 1.8-7.3 2.8-11.8 2.8-4.6-.1-8.5-1-11.8-2.8Zm17.9-9.2c1.7-1 3.1-2.4 4-4.2 1-1.8 1.4-4 1.4-6.5v-27.3c0-2.4-.5-4.6-1.4-6.4-1-1.8-2.3-3.3-4-4.2-1.7-1-3.8-1.5-6.1-1.5s-4.4.5-6.1 1.5c-1.7 1-3.1 2.4-4 4.2-.9 1.8-1.4 4-1.4 6.4v27.3c0 2.5.5 4.6 1.4 6.5.9 1.8 2.3 3.3 4 4.2 1.7 1 3.8 1.5 6.1 1.5s4.3-.5 6.1-1.5ZM407.75 26.45h10.5v71h-10.5v-71Zm6.6 61h14.6c3.7 0 6.5-1 8.6-2.9 2-1.9 3.1-4.7 3.1-8.2v-28.8c0-3.5-1-6.3-3.1-8.2-2-1.9-4.9-2.9-8.6-2.9h-14.6v-10h14.4c4.7 0 8.8.8 12.1 2.5 3.4 1.7 5.9 4.1 7.7 7.3 1.7 3.2 2.6 7 2.6 11.5v28.4c0 4.4-.9 8.2-2.6 11.4-1.8 3.2-4.3 5.6-7.7 7.3-3.4 1.7-7.4 2.5-12.2 2.5h-14.4v-9.9h.1ZM7.65.45h97.1c3.7 0 6.8 3 6.8 6.8v109.5c0 3.7-3 6.8-6.8 6.8H7.65c-3.8-.1-6.8-3.1-6.8-6.9V7.25c0-3.8 3-6.8 6.8-6.8Z"/><path fill="#fff" fill-rule="evenodd" d="M41.05 54.45c1.3.1 2.3 1.2 2.3 2.6 0 1.4-1.2 2.6-2.6 2.6h-17.4l1.1 4c1.3 4.8-1.5 6.3-5.2 8.1-3.1 1.6-7.2 3.6-7.2 11 0 10.4 8.7 24.6 11.3 28.6h15.4v-40.1c0-.3 0-.5.1-.8v-.5c0-1.4 1.2-2.6 2.6-2.6h7.9v-56.1c0-1.4 1.2-2.6 2.6-2.6 1.4 0 2.6 1.2 2.6 2.6v44.5h47.6c1.4 0 2.6 1.2 2.6 2.6v55.7c0 1.4-1.2 2.6-2.6 2.6-1.4 0-2.6-1.2-2.6-2.6v-34.4h-45v34.3c0 1.4-1.2 2.6-2.6 2.6-1.4 0-2.6-1.2-2.6-2.6v-41.3h-5.4v41.3c0 1.4-1.2 2.6-2.6 2.6h-20.3c-1.4 0-2.6-1.2-2.6-2.6 0-.2 0-.4.1-.5-3.3-5.3-11.7-19.6-11.7-30.7 0-10.5 5.7-13.4 10-15.6 1.6-.8 2.8-1.4 2.6-2.2l-1.9-7.1c-.1-.3-.1-.5-.1-.8 0-1.4 1.2-2.6 2.6-2.6h4.5c-1.2-2-2.5-4.2-3.6-6.4-2-3.7-3.9-7.5-5.3-10.9-2.2-5.1-3.6-9.5-4.1-12.9-.4-2.3-.5-4.3-.2-5.8.4-2.1 1.4-3.6 3-4.3.3-.1.7-.2 1-.3 2.5-.4 5.6 1.5 8.8 5.6 1 1.2 1.9 2.7 2.9 4.3.3-3.6.8-6.6 1.6-9 1.4-4.7 3.8-7.3 6.8-7.3 2.9 0 5.3 2.6 6.8 7.3 1.1 3.5 1.8 8.5 1.8 14.7 0 4.7-.4 10.2-1.1 15.2-.5 3.6-1.2 7.1-1.9 9.8Zm-19.3 20.1c-1.3 1.2-2.4 2.6-3.3 4.4-.7 1.5-1.1 3.3-1.1 5.3 0 9.5 8.9 22.4 8.9 22.5.5.8 1.6 1 2.4.5.8-.5 1-1.6.5-2.4 0 0-8.3-12.1-8.3-20.5 0-1.5.3-2.7.8-3.8.6-1.3 1.5-2.4 2.5-3.3.7-.6.7-1.7.1-2.4s-1.8-.9-2.5-.3Zm32.8 1.7h45v-3.6h-45v3.6Zm0-8.8h45v-6.6h-45v6.6Zm-25.3-15.1c-.5-2.3-1-5-1.4-7.8-.4-3.1-.7-6.4-.9-9.5-2.3-5.4-4.7-9.6-6.9-12.4-1.8-2.3-3.1-3.5-3.9-3.6 0 0 .1.1.1.4-.2.9-.1 2.3.2 4 .5 3 1.8 7 3.8 11.7 1.4 3.3 3.2 6.9 5.1 10.5 1.3 2.3 2.6 4.6 3.9 6.7Zm5.9 2.1h.4c.9-2.6 1.6-6.3 2.2-10.5.6-4.8 1-10 1-14.6 0-5.6-.6-10.1-1.5-13.2-.7-2.3-1.4-3.6-1.9-3.6s-1.2 1.3-1.9 3.6c-.9 3.1-1.5 7.5-1.5 13.2 0 4.5.4 9.7 1 14.4.6 4.3 1.4 8.1 2.2 10.7Z" clip-rule="evenodd"/></svg>