<svg width="10" height="8" viewBox="0 0 10 8" fill="none" xmlns="http://www.w3.org/2000/svg">
<path fill-rule="evenodd" clip-rule="evenodd" d="M0.979126 4.00021C0.979126 3.88171 1.0262 3.76806 1.10999 3.68427C1.19379 3.60047 1.30743 3.5534 1.42594 3.5534L9.46853 3.5534C9.58703 3.5534 9.70068 3.60047 9.78447 3.68427C9.86826 3.76806 9.91534 3.88171 9.91534 4.00021C9.91534 4.11871 9.86826 4.23236 9.78447 4.31615C9.70068 4.39994 9.58703 4.44702 9.46853 4.44702L1.42594 4.44702C1.30744 4.44702 1.19379 4.39995 1.10999 4.31615C1.0262 4.23236 0.979126 4.11871 0.979126 4.00021Z" fill="#07484A"/>
<path fill-rule="evenodd" clip-rule="evenodd" d="M0.215984 4.3164C0.174374 4.27489 0.141361 4.22559 0.118836 4.17131C0.0963107 4.11702 0.0847161 4.05883 0.0847161 4.00006C0.0847161 3.94129 0.0963107 3.88309 0.118836 3.82881C0.141361 3.77453 0.174374 3.72522 0.215983 3.68372L2.89685 1.00285C2.98075 0.918953 3.09454 0.871819 3.21319 0.871819C3.33184 0.871819 3.44563 0.918953 3.52953 1.00285C3.61343 1.08675 3.66056 1.20054 3.66056 1.31919C3.66056 1.43784 3.61343 1.55164 3.52953 1.63554L1.16412 4.00006L3.52953 6.36458C3.61343 6.44848 3.66056 6.56227 3.66056 6.68092C3.66056 6.79957 3.61343 6.91336 3.52953 6.99726C3.44563 7.08116 3.33184 7.1283 3.21319 7.1283C3.09454 7.1283 2.98075 7.08116 2.89685 6.99726L0.215984 4.3164Z" fill="#07484A"/>
</svg>
