<svg width="10" height="8" viewBox="0 0 10 8" fill="none" xmlns="http://www.w3.org/2000/svg">
<path fill-rule="evenodd" clip-rule="evenodd" d="M9.02087 3.99979C9.02087 4.11829 8.9738 4.23194 8.89001 4.31573C8.80621 4.39953 8.69257 4.4466 8.57406 4.4466L0.531474 4.4466C0.412973 4.4466 0.299324 4.39953 0.21553 4.31573C0.131738 4.23194 0.0846635 4.11829 0.0846634 3.99979C0.0846634 3.88129 0.131738 3.76764 0.21553 3.68385C0.299324 3.60005 0.412972 3.55298 0.531474 3.55298L8.57406 3.55298C8.69256 3.55298 8.80621 3.60005 8.89001 3.68385C8.9738 3.76764 9.02087 3.88129 9.02087 3.99979Z" fill="#07484A"/>
<path fill-rule="evenodd" clip-rule="evenodd" d="M9.78402 3.6836C9.82563 3.72511 9.85864 3.77441 9.88116 3.82869C9.90369 3.88298 9.91528 3.94117 9.91528 3.99994C9.91528 4.05871 9.90369 4.11691 9.88116 4.17119C9.85864 4.22547 9.82563 4.27478 9.78402 4.31628L7.10315 6.99715C7.01925 7.08105 6.90546 7.12818 6.78681 7.12818C6.66816 7.12818 6.55437 7.08105 6.47047 6.99715C6.38657 6.91325 6.33944 6.79946 6.33944 6.68081C6.33944 6.56215 6.38657 6.44836 6.47047 6.36446L8.83588 3.99994L6.47047 1.63542C6.38657 1.55152 6.33944 1.43773 6.33944 1.31908C6.33944 1.20043 6.38657 1.08664 6.47047 1.00274C6.55437 0.918839 6.66816 0.871705 6.78681 0.871705C6.90546 0.871704 7.01925 0.918839 7.10315 1.00274L9.78402 3.6836Z" fill="#07484A"/>
</svg>
