<svg xmlns="http://www.w3.org/2000/svg" width="184" height="29" fill="none"><path fill="#FFC107" d="m27.98 10.181-8.668-1.319L15.437.636a1.113 1.113 0 0 0-.495-.518c-.54-.279-1.195-.046-1.465.518L9.603 8.862l-8.668 1.32a1.075 1.075 0 0 0-.625.332c-.202.218-.314.51-.31.814.004.304.123.594.33.806l6.272 6.402-1.482 9.041c-.035.21-.012.427.064.625.077.197.205.369.37.494a1.05 1.05 0 0 0 1.15.086l7.753-4.268 7.753 4.268c.212.118.458.157.693.114.594-.107.994-.697.891-1.319l-1.481-9.04 6.271-6.403c.17-.176.283-.405.317-.655.093-.625-.324-1.204-.921-1.297ZM67.409 10.182l-8.669-1.32L54.866.636a1.113 1.113 0 0 0-.495-.518c-.54-.279-1.195-.046-1.465.518l-3.875 8.226-8.668 1.32a1.074 1.074 0 0 0-.624.332c-.203.218-.314.51-.31.814.004.304.122.594.33.806l6.272 6.402-1.482 9.041c-.035.21-.013.427.064.625.077.197.205.369.37.494a1.05 1.05 0 0 0 1.15.086l7.753-4.268 7.753 4.268c.212.118.457.157.693.115.594-.108.993-.698.891-1.32l-1.482-9.04 6.272-6.403c.17-.176.283-.405.317-.655.092-.625-.324-1.204-.921-1.297ZM104.208 10.182l-8.668-1.32L91.665.636a1.113 1.113 0 0 0-.495-.518c-.539-.279-1.194-.046-1.464.518L85.83 8.862l-8.668 1.32a1.074 1.074 0 0 0-.625.332c-.202.218-.313.51-.31.814.005.304.123.594.33.806l6.272 6.402-1.481 9.041c-.035.21-.013.427.064.625.077.197.205.369.37.494a1.05 1.05 0 0 0 1.15.086l7.753-4.268 7.753 4.268c.211.118.457.157.693.115.594-.108.993-.698.891-1.32l-1.482-9.04 6.272-6.403c.17-.176.283-.405.317-.655.092-.625-.324-1.204-.922-1.297ZM143.637 10.182l-8.668-1.32-3.875-8.226a1.114 1.114 0 0 0-.495-.518c-.539-.279-1.195-.046-1.464.518l-3.875 8.226-8.668 1.32a1.074 1.074 0 0 0-.625.332c-.202.218-.314.51-.31.814.004.304.123.594.331.806l6.271 6.402-1.482 9.041c-.034.21-.012.427.065.625.076.197.204.369.369.494a1.047 1.047 0 0 0 1.15.086l7.753-4.268 7.753 4.268c.212.118.458.157.693.115.594-.108.994-.698.892-1.32l-1.482-9.04 6.271-6.403a1.16 1.16 0 0 0 .318-.655c.092-.625-.325-1.204-.922-1.297ZM183.066 10.182l-8.668-1.32-3.875-8.226a1.114 1.114 0 0 0-.495-.518c-.539-.279-1.195-.046-1.465.518l-3.874 8.226-8.668 1.32a1.074 1.074 0 0 0-.625.332c-.202.218-.314.51-.31.814.004.304.123.594.33.806l6.272 6.402-1.482 9.041c-.035.21-.012.427.064.625.077.197.205.369.37.494a1.049 1.049 0 0 0 1.15.086l7.753-4.268 7.753 4.268c.212.118.458.157.693.115.594-.108.994-.698.891-1.32l-1.481-9.04 6.271-6.403c.171-.176.283-.405.317-.655.093-.625-.324-1.204-.921-1.297Z"/></svg>